<?xml version="1.0" encoding="UTF-8" standalone="no"?>
<svg
   xmlns:dc="http://purl.org/dc/elements/1.1/"
   xmlns:cc="http://creativecommons.org/ns#"
   xmlns:rdf="http://www.w3.org/1999/02/22-rdf-syntax-ns#"
   xmlns:svg="http://www.w3.org/2000/svg"
   xmlns="http://www.w3.org/2000/svg"
   style="fill:#000000"
   version="1.1"
   id="svg2"
   width="48"
   viewBox="0 0 48 48"
   height="48">
  <metadata
     id="metadata12">
    <rdf:RDF>
      <cc:Work
         rdf:about="">
        <dc:format>image/svg+xml</dc:format>
        <dc:type
           rdf:resource="http://purl.org/dc/dcmitype/StillImage" />
        <dc:title></dc:title>
      </cc:Work>
    </rdf:RDF>
  </metadata>
  <defs
     id="defs10" />
  <g
     transform="matrix(1.9957627,0,0,1.9915254,0,-47.59322)"
     id="g4140">
    <path
       d="m 0,24 24,0 0,24 -24,0 z"
       id="path4"
       style="fill:none" />
    <path
       d="M 7.52,45.48 C 4.25,43.94 1.91,40.76 1.55,37 l -1.5,0 C 0.56,43.16 5.71,48 12,48 L 12.66,47.97 8.85,44.16 7.52,45.48 Z M 8.41,38.96 C 8.22,38.96 8.04,38.93 7.89,38.88 7.73,38.82 7.6,38.75 7.49,38.64 7.38,38.54 7.29,38.42 7.23,38.27 7.17,38.13 7.14,37.97 7.14,37.8 l -1.3,0 c 0,0.36 0.07,0.68 0.21,0.95 0.14,0.27 0.33,0.5 0.56,0.69 0.24,0.18 0.51,0.32 0.82,0.41 0.3,0.1 0.62,0.15 0.96,0.15 0.37,0 0.72,-0.05 1.03,-0.15 0.32,-0.1 0.6,-0.25 0.83,-0.44 0.23,-0.19 0.42,-0.43 0.55,-0.72 0.13,-0.29 0.2,-0.61 0.2,-0.97 0,-0.19 -0.02,-0.38 -0.07,-0.56 -0.05,-0.18 -0.12,-0.35 -0.23,-0.51 -0.1,-0.16 -0.24,-0.3 -0.4,-0.43 -0.17,-0.13 -0.37,-0.23 -0.61,-0.31 0.2,-0.09 0.37,-0.2 0.52,-0.33 0.15,-0.13 0.27,-0.27 0.37,-0.42 0.1,-0.15 0.17,-0.3 0.22,-0.46 0.05,-0.16 0.07,-0.32 0.07,-0.48 0,-0.36 -0.06,-0.68 -0.18,-0.96 C 10.57,32.98 10.4,32.75 10.18,32.57 9.98,32.38 9.71,32.24 9.41,32.14 9.1,32.05 8.76,32 8.39,32 8.03,32 7.7,32.05 7.39,32.16 7.09,32.27 6.82,32.42 6.6,32.61 6.39,32.8 6.22,33.02 6.09,33.28 5.97,33.54 5.91,33.82 5.91,34.13 l 1.3,0 c 0,-0.17 0.03,-0.32 0.09,-0.45 0.06,-0.13 0.14,-0.25 0.25,-0.34 0.11,-0.09 0.23,-0.17 0.38,-0.22 0.15,-0.05 0.3,-0.08 0.48,-0.08 0.4,0 0.7,0.1 0.89,0.31 0.19,0.2 0.29,0.49 0.29,0.86 0,0.18 -0.03,0.34 -0.08,0.49 -0.05,0.15 -0.14,0.27 -0.25,0.37 -0.11,0.1 -0.25,0.18 -0.41,0.24 -0.16,0.06 -0.36,0.09 -0.58,0.09 l -0.77,0 0,1.03 0.77,0 c 0.22,0 0.42,0.02 0.6,0.07 0.18,0.05 0.33,0.13 0.45,0.23 0.12,0.11 0.22,0.24 0.29,0.4 0.07,0.16 0.1,0.35 0.1,0.57 0,0.41 -0.12,0.72 -0.35,0.93 -0.23,0.23 -0.55,0.33 -0.95,0.33 z m 8.55,-5.92 C 16.64,32.71 16.26,32.45 15.82,32.27 15.39,32.09 14.9,32 14.36,32 l -2.36,0 0,8 2.3,0 c 0.55,0 1.06,-0.09 1.51,-0.27 0.45,-0.18 0.84,-0.43 1.16,-0.76 0.32,-0.33 0.57,-0.73 0.74,-1.19 0.17,-0.47 0.26,-0.99 0.26,-1.57 l 0,-0.4 c 0,-0.58 -0.09,-1.1 -0.26,-1.57 -0.18,-0.47 -0.43,-0.87 -0.75,-1.2 z m -0.39,3.16 c 0,0.42 -0.05,0.79 -0.14,1.13 -0.1,0.33 -0.24,0.62 -0.43,0.85 -0.19,0.23 -0.43,0.41 -0.71,0.53 -0.29,0.12 -0.62,0.18 -0.99,0.18 l -0.91,0 0,-5.77 0.97,0 c 0.72,0 1.27,0.23 1.64,0.69 0.38,0.46 0.57,1.12 0.57,1.99 l 0,0.4 z M 12,24 l -0.66,0.03 3.81,3.81 1.33,-1.33 c 3.27,1.55 5.61,4.72 5.96,8.48 l 1.5,0 C 23.44,28.84 18.29,24 12,24 Z"
       id="path6" />
  </g>
</svg>
